<?xml version="1.0" encoding="UTF-8"?><svg id="Layer_1" xmlns="http://www.w3.org/2000/svg" viewBox="0 0 404.57 525"><defs><style>.cls-1{fill:#595a57;}.cls-2{fill:red;fill-rule:evenodd;}.cls-3{fill:#fffd54;}</style></defs><g id="layer1"><g id="g1465"><path id="path1445" class="cls-3" d="M202.28,0C138.37-.1,53.37,14.5.75,43.23l-.75.41v214.33h0c0,80.61,26.05,137.68,55.93,177.73,26.7,35.79,65.51,66.32,145.96,89.19l.4.11.4-.11c80.45-22.86,119.26-53.39,145.96-89.19,29.88-40.06,55.93-97.13,55.93-177.73h0V43.64l-.75-.41C351.2,14.5,266.2-.1,202.28,0h0Z"/><path id="path1449" class="cls-1" d="M202.28,2.89h0c63.17-.1,147.49,14.44,199.39,42.49v212.59c-.09,80.04-25.82,136.41-55.36,176.01-26.32,35.29-64.29,65.28-144.04,88.01-79.75-22.73-117.71-52.72-144.03-88.01C28.72,394.38,2.98,338,2.89,257.97V45.38C54.79,17.33,139.11,2.79,202.28,2.89h0Z"/><path id="path1433" class="cls-3" d="M202.28,6.56c-63.91-.1-141.44,14.52-194.02,43.22l-.75.41v205.58h0c.09,80.62,24.64,135.47,54.5,175.5,26.7,35.8,64.4,64.18,139.86,87.04l.42.13.42-.13c75.46-22.86,113.15-51.24,139.86-87.04,29.86-40.03,54.41-94.88,54.5-175.5h0V50.2l-.75-.41C343.73,21.08,266.2,6.46,202.28,6.56h0Z"/><path id="path1437" d="M202.28,9.46h0c63.18-.1,140,14.43,191.88,42.5v203.82c-.09,80.03-24.37,134.15-53.92,173.77-26.31,35.27-63.18,63.14-137.96,85.86-74.78-22.72-111.64-50.59-137.96-85.86-29.55-39.62-53.84-93.74-53.93-173.77V51.96C62.28,23.89,139.1,9.36,202.28,9.46Z"/><path id="path1017" class="cls-3" d="M202.28,24.98c-60.93-.1-125.78,8.92-178.01,37.43v193.37c.09,80.32,20.61,131.72,50.86,164.36,30.17,32.55,67.35,70.56,127.15,81.77,59.8-11.2,96.98-49.22,127.15-81.77,30.26-32.64,50.78-84.04,50.86-164.36V62.41c-52.23-28.52-117.09-37.53-178.02-37.43h0Z"/><g id="g1408"><path id="path1398" class="cls-2" d="M360.88,52.94v317.18c12.15-29.38,19.36-66.79,19.42-114.33V62.41c-6.3-3.44-12.78-6.59-19.42-9.48Z"/><path id="rect1025" class="cls-2" d="M231.27,25.65v468.22c27.59-10.25,49.67-26.36,68.51-43.67V34c-22.45-4.62-45.57-7.23-68.51-8.36Z"/><path id="path1402" class="cls-2" d="M43.68,52.94c-6.63,2.89-13.12,6.04-19.42,9.48v193.37c.05,47.54,7.27,84.95,19.42,114.33V52.94Z"/><path id="rect1365" class="cls-2" d="M173.29,25.65c-22.94,1.12-46.05,3.73-68.51,8.36v416.2c18.84,17.31,40.92,33.42,68.51,43.67V25.65Z"/></g><path id="path1429" class="cls-1" d="M202.28,23.53c-61.07-.1-126.14,8.91-178.7,37.6l-.75.41v194.23c.09,80.57,20.7,132.39,51.25,165.35,30.19,32.57,67.67,70.91,127.94,82.2l.27.05.27-.05c60.28-11.29,97.75-49.63,127.94-82.2,30.55-32.96,51.16-84.78,51.25-165.35V61.55l-.76-.41c-52.56-28.7-117.63-37.7-178.7-37.6h0ZM202.28,26.42h0c60.5-.1,124.78,8.9,176.56,36.93v192.43c-.09,80.08-20.51,131.05-50.48,163.38-30.1,32.47-66.93,70.09-126.09,81.26-59.16-11.18-95.99-48.79-126.09-81.26-29.97-32.33-50.39-83.3-50.48-163.38V63.36c51.78-28.03,116.06-37.03,176.56-36.93h0Z"/></g><g id="g1323"><g id="g1196"><path id="path1141" d="M99.9,112.85c-.06-.41-.15-.69-.26-.83-.12-.15-.29-.22-.53-.22h-14.44v3.89h9.71c.23,0,.41-.06.53-.17.12-.15.2-.42.26-.83h.53v7.35h-.53c-.06-.5-.15-.82-.26-.96-.12-.15-.29-.22-.53-.22h-9.71v7.31c0,.2.06.38.17.53.15.12.5.2,1.05.26v.53h-9.19v-.53c.55-.06.89-.15,1.01-.26.15-.15.22-.32.22-.53v-20.39c0-.2-.07-.36-.22-.48-.12-.15-.45-.25-1.01-.31v-.53h22.4c.23,0,.41-.07.53-.22.12-.18.2-.51.26-1.01h.53v7.61h-.52Z"/><path id="path1143" d="M120.38,106.2c1.87,0,3.62.26,5.25.79,1.66.5,3.11,1.24,4.33,2.23,1.25.99,2.25,2.22,2.98,3.68.73,1.46,1.09,3.15,1.09,5.08s-.36,3.62-1.09,5.08c-.73,1.46-1.72,2.68-2.98,3.68-1.23.99-2.67,1.72-4.33,2.19-1.63.47-3.38.7-5.25.7s-3.63-.23-5.29-.7c-1.63-.47-3.08-1.2-4.33-2.19-1.23-.99-2.2-2.22-2.93-3.68-.73-1.46-1.09-3.15-1.09-5.08s.36-3.62,1.09-5.08c.73-1.46,1.71-2.68,2.93-3.68,1.25-.99,2.7-1.74,4.33-2.23,1.66-.53,3.43-.79,5.29-.79ZM120.38,111.54c-.96,0-1.88.15-2.76.44-.85.29-1.6.71-2.28,1.27-.64.53-1.17,1.2-1.58,2.01-.38.79-.57,1.69-.57,2.71s.19,1.94.57,2.76c.41.79.93,1.46,1.58,2.01.67.53,1.43.93,2.28,1.23.88.29,1.79.44,2.76.44s1.87-.15,2.71-.44c.88-.29,1.63-.7,2.28-1.23.67-.55,1.2-1.23,1.58-2.01.41-.82.61-1.74.61-2.76s-.2-1.93-.61-2.71c-.38-.82-.9-1.49-1.58-2.01-.64-.55-1.4-.98-2.28-1.27-.85-.29-1.75-.44-2.71-.44Z"/><path id="path1145" d="M154.18,106.2c1.87,0,3.62.26,5.25.79,1.66.5,3.11,1.24,4.33,2.23,1.25.99,2.25,2.22,2.98,3.68.73,1.46,1.09,3.15,1.09,5.08s-.36,3.62-1.09,5.08c-.73,1.46-1.72,2.68-2.98,3.68-1.23.99-2.67,1.72-4.33,2.19-1.63.47-3.38.7-5.25.7s-3.63-.23-5.29-.7c-1.63-.47-3.08-1.2-4.33-2.19-1.23-.99-2.2-2.22-2.93-3.68-.73-1.46-1.09-3.15-1.09-5.08s.36-3.62,1.09-5.08c.73-1.46,1.71-2.68,2.93-3.68,1.25-.99,2.7-1.74,4.33-2.23,1.66-.53,3.43-.79,5.29-.79ZM154.18,111.54c-.96,0-1.88.15-2.76.44-.85.29-1.6.71-2.28,1.27-.64.53-1.17,1.2-1.58,2.01-.38.79-.57,1.69-.57,2.71,0,1.02.19,1.94.57,2.76.41.79.93,1.46,1.58,2.01.67.53,1.43.93,2.28,1.23.88.29,1.79.44,2.76.44s1.87-.15,2.71-.44c.88-.29,1.63-.7,2.28-1.23.67-.55,1.2-1.23,1.58-2.01.41-.82.61-1.74.61-2.76,0-1.02-.2-1.93-.61-2.71-.38-.82-.9-1.49-1.58-2.01-.64-.55-1.4-.98-2.28-1.27-.85-.29-1.75-.44-2.71-.44Z"/><path id="path1147" d="M181.03,128.95c.55-.06.89-.15,1.01-.26.15-.15.22-.32.22-.53v-16.36h-7.53c-.23,0-.41.09-.53.26-.12.15-.2.47-.26.96h-.53v-7.79h.53c.06.5.15.83.26,1.01.12.15.29.22.53.22h21.61c.23,0,.41-.07.53-.22.12-.18.2-.51.26-1.01h.53v7.79h-.53c-.06-.5-.15-.82-.26-.96-.12-.17-.29-.26-.53-.26h-7.53v16.36c0,.2.06.38.17.53.15.12.5.2,1.05.26v.53h-9.01v-.53Z"/><path id="path1149" d="M219.73,124.84c1.58,0,2.68-.19,3.33-.57.64-.41.96-1.09.96-2.06s-.32-1.63-.96-2.01c-.64-.41-1.75-.61-3.33-.61h-7.44v5.25h7.44ZM218.24,115.12c.93,0,1.71-.01,2.32-.04.61-.06,1.09-.16,1.44-.31s.6-.35.74-.61c.15-.26.22-.61.22-1.05s-.07-.79-.22-1.05c-.15-.26-.39-.47-.74-.61-.35-.15-.83-.23-1.44-.26-.61-.06-1.39-.09-2.32-.09h-5.95v4.03h5.95ZM205.72,107.77c0-.2-.07-.36-.22-.48-.12-.15-.45-.25-1.01-.31v-.53h16.67c1.2,0,2.29.12,3.28.35s1.85.6,2.58,1.09c.73.47,1.3,1.09,1.71,1.88.41.76.61,1.68.61,2.76,0,1.31-.39,2.38-1.18,3.19-.79.79-1.79,1.31-3.02,1.58v.09c1.49.41,2.7,1.04,3.63,1.88.96.85,1.44,2.09,1.44,3.72,0,.88-.18,1.71-.53,2.49-.32.79-.85,1.47-1.58,2.06-.7.58-1.62,1.05-2.76,1.4-1.11.35-2.44.53-3.98.53h-16.89v-.53c.55-.06.89-.15,1.01-.26.15-.15.22-.32.22-.53v-20.39Z"/><path id="path1151" d="M243.69,128.51c0,.15.04.26.13.35.12.06.34.09.66.09v.53h-7.74v-.53c.32-.06.55-.15.7-.26.15-.15.29-.39.44-.74.06-.15.2-.54.44-1.18.23-.64.54-1.44.92-2.41.38-.99.8-2.09,1.27-3.28s.93-2.41,1.4-3.63c.47-1.25.92-2.46,1.36-3.63.47-1.2.88-2.26,1.23-3.19.35-.93.63-1.69.83-2.28.23-.58.35-.89.35-.92,0-.15-.1-.25-.31-.31-.17-.06-.36-.1-.57-.13v-.53h11.42v.53c-.23.03-.42.07-.57.13-.15.06-.22.2-.22.44,0,.06.13.44.39,1.14.29.7.66,1.62,1.09,2.76.44,1.11.93,2.38,1.49,3.81.58,1.4,1.18,2.84,1.79,4.33.61,1.46,1.2,2.89,1.75,4.29.58,1.4,1.11,2.65,1.58,3.76.23.53.42.88.57,1.05.18.18.39.26.66.26v.53h-8.62v-.53c.55-.03.83-.2.83-.53,0-.03-.07-.22-.22-.57-.15-.38-.31-.79-.48-1.23-.18-.47-.35-.9-.53-1.31-.15-.41-.23-.69-.26-.83h-10.37c-.29.79-.53,1.43-.7,1.93s-.32.89-.44,1.18c-.09.29-.16.51-.22.66-.03.12-.04.2-.04.26h0ZM254.32,120.99l-4.24-10.41-3.89,10.41h8.14Z"/><path id="path1153" d="M295.13,124.14c.23,0,.41-.07.53-.22.12-.18.2-.51.26-1.01h.53v7.57h-.53c-.06-.47-.15-.76-.26-.88-.12-.09-.29-.13-.53-.13h-22.84v-.53c.55-.06.89-.15,1.01-.26.15-.15.22-.32.22-.53v-20.39c0-.2-.07-.36-.22-.48-.12-.15-.45-.25-1.01-.31v-.53h9.01v.53c-.55.06-.9.16-1.05.31-.12.12-.17.28-.17.48v16.36h15.05Z"/><path id="path1155" d="M326.54,124.14c.23,0,.41-.07.53-.22.12-.18.2-.51.26-1.01h.53v7.57h-.53c-.06-.47-.15-.76-.26-.88-.12-.09-.29-.13-.53-.13h-22.84v-.53c.55-.06.89-.15,1.01-.26.15-.15.22-.32.22-.53v-20.39c0-.2-.07-.36-.22-.48-.12-.15-.45-.25-1.01-.31v-.53h9.01v.53c-.55.06-.9.16-1.05.31-.12.12-.17.28-.17.48v16.36h15.05Z"/></g><g id="g1202"><path id="path1132" d="M160.26,158.4c.03-.09.04-.18.04-.26.03-.12.04-.25.04-.39,0-.23-.2-.47-.61-.7-.38-.23-.9-.44-1.58-.61-.64-.2-1.39-.36-2.23-.48-.85-.15-1.74-.22-2.67-.22-.88,0-1.79.1-2.76.31s-1.85.54-2.67,1.01c-.79.47-1.44,1.09-1.97,1.88-.5.76-.74,1.69-.74,2.8s.25,2.06.74,2.84c.53.76,1.18,1.37,1.97,1.84.82.47,1.71.8,2.67,1.01.96.2,1.88.31,2.76.31.38,0,.98-.06,1.79-.17.82-.15,1.63-.34,2.45-.57.82-.23,1.53-.5,2.14-.79.64-.29.96-.6.96-.92,0-.15-.03-.26-.09-.35-.06-.09-.12-.19-.17-.31l.48-.31,4.51,6.87-.53.31c-.06-.15-.15-.23-.26-.26-.09-.06-.2-.09-.35-.09-.2,0-.61.13-1.23.39-.61.23-1.41.5-2.41.79-.96.26-2.1.51-3.41.74-1.31.2-2.79.31-4.42.31-1.75,0-3.49-.22-5.21-.66-1.72-.47-3.27-1.18-4.64-2.14-1.37-.99-2.48-2.22-3.33-3.68-.85-1.49-1.27-3.21-1.27-5.16s.42-3.66,1.27-5.12c.85-1.49,1.95-2.71,3.33-3.68,1.37-.99,2.92-1.74,4.64-2.23,1.72-.5,3.46-.74,5.21-.74s3.25.1,4.51.31c1.28.17,2.36.38,3.24.61.85.23,1.5.44,1.97.61.47.15.82.22,1.05.22.26,0,.48-.12.66-.35l.48.13-3.94,7.22-.44-.31Z"/><path id="path1134" d="M195.95,167.89c.23,0,.41-.07.53-.22.12-.18.2-.51.26-1.01h.53v7.57h-.53c-.06-.47-.15-.76-.26-.88-.12-.09-.29-.13-.53-.13h-22.84v-.53c.55-.06.89-.15,1.01-.26.15-.15.22-.32.22-.53v-20.39c0-.2-.07-.36-.22-.48-.12-.15-.45-.25-1.01-.31v-.53h9.01v.53c-.55.06-.9.16-1.05.31-.12.12-.17.28-.17.48v16.36h15.05Z"/><path id="path1136" d="M223.51,151.53c0-.2-.07-.36-.22-.48-.12-.15-.45-.25-1.01-.31v-.53h9.01v.53c-.55.06-.9.16-1.05.31-.12.12-.17.28-.17.48v11.73c0,1.93-.32,3.54-.96,4.86-.61,1.31-1.47,2.36-2.58,3.15-1.08.79-2.36,1.34-3.85,1.66-1.46.29-3.02.44-4.68.44s-3.24-.15-4.73-.44c-1.46-.32-2.74-.88-3.85-1.66-1.08-.79-1.94-1.84-2.58-3.15-.61-1.31-.92-2.93-.92-4.86v-11.73c0-.2-.07-.36-.22-.48-.12-.15-.45-.25-1.01-.31v-.53h9.01v.53c-.55.06-.9.16-1.05.31-.12.12-.17.28-.17.48v11.73c0,1.69.48,2.9,1.44,3.63s2.32,1.09,4.07,1.09,3.11-.36,4.07-1.09,1.44-1.94,1.44-3.63v-11.73Z"/><path id="path1138" d="M255.77,168.59c1.58,0,2.68-.19,3.33-.57.64-.41.96-1.09.96-2.06s-.32-1.63-.96-2.01c-.64-.41-1.75-.61-3.33-.61h-7.44v5.25h7.44ZM254.28,158.88c.93,0,1.71-.01,2.32-.04.61-.06,1.09-.16,1.44-.31.35-.15.6-.35.74-.61.15-.26.22-.61.22-1.05s-.07-.79-.22-1.05c-.15-.26-.39-.47-.74-.61-.35-.15-.83-.23-1.44-.26-.61-.06-1.39-.09-2.32-.09h-5.95v4.03h5.95ZM241.77,151.53c0-.2-.07-.36-.22-.48-.12-.15-.45-.25-1.01-.31v-.53h16.67c1.2,0,2.29.12,3.28.35.99.23,1.85.6,2.58,1.09.73.47,1.3,1.09,1.71,1.88.41.76.61,1.68.61,2.76,0,1.31-.39,2.38-1.18,3.19-.79.79-1.79,1.31-3.02,1.58v.09c1.49.41,2.7,1.04,3.63,1.88.96.85,1.44,2.09,1.44,3.72,0,.88-.17,1.71-.53,2.49-.32.79-.85,1.47-1.58,2.06-.7.58-1.62,1.05-2.76,1.4-1.11.35-2.44.53-3.98.53h-16.89v-.53c.55-.06.89-.15,1.01-.26.15-.15.22-.32.22-.53v-20.39Z"/></g><g id="g1213"><path id="path1113" d="M83.42,223.02c.55-.06.89-.15,1.01-.26.15-.15.22-.32.22-.53v-16.1l-.09-.09-7.79,16.98-7.7-17.15h-.09v16.36c0,.2.06.38.17.53.15.12.5.2,1.05.26v.53h-7.7v-.53c.55-.06.89-.15,1.01-.26.15-.15.22-.32.22-.53v-20.39c0-.2-.07-.36-.22-.48-.12-.15-.45-.25-1.01-.31v-.53h11.42v.53c-.7.03-1.05.29-1.05.79,0,.03.09.26.26.7s.39.98.66,1.62c.29.64.6,1.34.92,2.1.35.73.67,1.44.96,2.14.32.67.6,1.27.83,1.79.23.53.39.88.48,1.05.5-1.11,1.01-2.19,1.53-3.24.53-1.05.99-2.01,1.4-2.89.44-.88.79-1.6,1.05-2.19.26-.58.39-.95.39-1.09,0-.5-.35-.76-1.05-.79v-.53h11.86v.53c-.55.06-.9.16-1.05.31-.12.12-.17.28-.17.48v20.39c0,.2.06.38.17.53.15.12.5.2,1.05.26v.53h-8.75v-.53Z"/><path id="path1115" d="M106.56,222.59c0,.15.04.26.13.35.12.06.34.09.66.09v.53h-7.74v-.53c.32-.06.55-.15.7-.26.15-.15.29-.39.44-.74.06-.15.2-.54.44-1.18.23-.64.54-1.44.92-2.41.38-.99.8-2.09,1.27-3.28.47-1.2.93-2.41,1.4-3.63.47-1.25.92-2.46,1.36-3.63.47-1.2.88-2.26,1.23-3.19.35-.93.63-1.69.83-2.28.23-.58.35-.89.35-.92,0-.15-.1-.25-.31-.31-.18-.06-.36-.1-.57-.13v-.53h11.42v.53c-.23.03-.42.07-.57.13-.15.06-.22.2-.22.44,0,.06.13.44.39,1.14.29.7.66,1.62,1.09,2.76.44,1.11.93,2.38,1.49,3.81.58,1.4,1.18,2.84,1.79,4.33.61,1.46,1.2,2.89,1.75,4.29.58,1.4,1.11,2.65,1.58,3.76.23.53.42.88.57,1.05.17.17.39.26.66.26v.53h-8.62v-.53c.55-.03.83-.2.83-.53,0-.03-.07-.22-.22-.57-.15-.38-.31-.79-.48-1.23-.18-.47-.35-.9-.53-1.31-.15-.41-.23-.69-.26-.83h-10.37c-.29.79-.53,1.43-.7,1.93-.18.5-.32.89-.44,1.18-.09.29-.16.51-.22.66-.03.12-.04.2-.04.26h0ZM117.2,215.06l-4.24-10.41-3.89,10.41h8.14Z"/><path id="path1117" d="M150.3,210.25c1.28,0,2.16-.23,2.63-.7.5-.5.74-1.06.74-1.71,0-.64-.25-1.2-.74-1.66-.47-.5-1.34-.74-2.63-.74h-7.35v4.81h7.35ZM142.95,222.24c0,.2.06.38.17.53.15.12.5.2,1.05.26v.53h-9.01v-.53c.55-.06.89-.15,1.01-.26.15-.15.22-.32.22-.53v-20.39c0-.2-.07-.36-.22-.48-.12-.15-.45-.25-1.01-.31v-.53h16.01c3.24,0,5.59.6,7.04,1.79,1.46,1.17,2.19,2.99,2.19,5.47,0,2.01-.6,3.59-1.79,4.73-1.17,1.14-2.65,1.95-4.46,2.45l5.16,7.26c.35.53.77.79,1.27.79v.53h-9.1v-.53c.64-.03.96-.29.96-.79,0-.06-.12-.26-.35-.61-.23-.35-.53-.77-.88-1.27-.35-.5-.74-1.02-1.18-1.58-.41-.58-.82-1.14-1.23-1.66-.38-.53-.71-.99-1.01-1.4-.29-.41-.48-.69-.57-.83h-4.29v7.35Z"/><path id="path1119" d="M174.27,223.02c.55-.06.89-.15,1.01-.26.15-.15.22-.32.22-.53v-16.36h-7.53c-.23,0-.41.09-.53.26-.12.15-.2.47-.26.96h-.53v-7.79h.53c.06.5.15.83.26,1.01.12.15.29.22.53.22h21.61c.23,0,.41-.07.53-.22.12-.17.2-.51.26-1.01h.53v7.79h-.53c-.06-.5-.15-.82-.26-.96-.12-.18-.29-.26-.53-.26h-7.53v16.36c0,.2.06.38.17.53.15.12.5.2,1.05.26v.53h-9.01v-.53Z"/><path id="path1121" d="M198.39,223.02c.55-.06.89-.15,1.01-.26.15-.15.22-.32.22-.53v-20.39c0-.2-.07-.36-.22-.48-.12-.15-.45-.25-1.01-.31v-.53h9.01v.53c-.55.06-.9.16-1.05.31-.12.12-.17.28-.17.48v20.39c0,.2.06.38.17.53.15.12.5.2,1.05.26v.53h-9.01v-.53Z"/><path id="path1123" d="M230.75,215.19c-.23,0-.39.09-.48.26-.09.15-.15.35-.17.61h-.53v-6.13h.53c.06.53.28.79.66.79h12.91v.53c-.47.03-.7.28-.7.74v7.26c0,.2.03.38.09.53.06.15.2.22.44.22h.22v.53c-3.97,2.1-8.66,3.15-14.09,3.15-1.84,0-3.62-.22-5.34-.66-1.69-.47-3.19-1.18-4.51-2.14-1.31-.96-2.38-2.17-3.19-3.63-.79-1.49-1.18-3.22-1.18-5.21s.39-3.7,1.18-5.16c.82-1.49,1.88-2.71,3.19-3.68,1.31-.99,2.81-1.72,4.51-2.19,1.72-.5,3.5-.74,5.34-.74.73,0,1.37.01,1.93.04.55.03,1.09.09,1.62.17.53.09,1.06.2,1.62.35.55.12,1.21.28,1.97.48.73.2,1.4.45,2.01.74.61.26,1.01.39,1.18.39.23,0,.44-.12.61-.35l.53.17-2.84,5.78-.53-.31c.06-.17.09-.34.09-.48,0-.2-.25-.42-.74-.66-.5-.26-1.12-.5-1.88-.7-.76-.2-1.62-.38-2.58-.53-.93-.15-1.85-.22-2.76-.22-1.05,0-2.06.15-3.02.44-.93.26-1.78.69-2.54,1.27-.73.58-1.31,1.31-1.75,2.19-.44.85-.66,1.87-.66,3.06,0,1.17.26,2.19.79,3.06.53.85,1.18,1.55,1.97,2.1.82.55,1.72.96,2.71,1.23.99.26,1.97.39,2.93.39,1.23,0,2.32-.07,3.28-.22.99-.15,1.94-.35,2.84-.61v-2.89h-5.64Z"/><path id="path1125" d="M269.9,201.85c0-.2-.07-.36-.22-.48-.12-.15-.45-.25-1.01-.31v-.53h9.01v.53c-.55.06-.9.16-1.05.31-.12.12-.17.28-.17.48v11.73c0,1.93-.32,3.54-.96,4.86-.61,1.31-1.47,2.36-2.58,3.15-1.08.79-2.36,1.34-3.85,1.66-1.46.29-3.02.44-4.68.44s-3.24-.15-4.73-.44c-1.46-.32-2.74-.88-3.85-1.66-1.08-.79-1.94-1.84-2.58-3.15-.61-1.31-.92-2.93-.92-4.86v-11.73c0-.2-.07-.36-.22-.48-.12-.15-.45-.25-1.01-.31v-.53h9.01v.53c-.55.06-.9.16-1.05.31-.12.12-.17.28-.17.48v11.73c0,1.69.48,2.9,1.44,3.63s2.32,1.09,4.07,1.09,3.11-.36,4.07-1.09,1.44-1.94,1.44-3.63v-11.73Z"/><path id="path1127" d="M304.35,215.15c-.06-.29-.19-.53-.39-.7-.18-.2-.48-.31-.92-.31h-8.14v4.07h14.05c.23,0,.41-.07.53-.22.12-.18.2-.54.26-1.09h.53v7.48h-.53c-.06-.38-.15-.61-.26-.7-.12-.09-.29-.13-.53-.13h-21.83v-.53c.55-.06.89-.15,1.01-.26.15-.15.22-.32.22-.53v-20.39c0-.2-.07-.36-.22-.48-.12-.15-.45-.25-1.01-.31v-.53h21.83c.23,0,.41-.07.53-.22.12-.17.2-.51.26-1.01h.53v7.61h-.53c-.06-.5-.15-.82-.26-.96-.12-.18-.29-.26-.53-.26h-14.05v3.63h8.14c.44,0,.74-.09.92-.26.2-.2.34-.45.39-.74h.53v6.83h-.53Z"/><path id="path1129" d="M320.45,214.67c-.06.18-.09.48-.09.92,0,.29.26.63.79,1.01.55.35,1.25.69,2.1,1.01.88.32,1.87.6,2.98.83,1.11.2,2.23.31,3.37.31,2.19,0,3.79-.25,4.81-.74,1.02-.53,1.53-1.27,1.53-2.23,0-.53-.45-.89-1.36-1.09-.88-.23-1.98-.41-3.33-.53-1.34-.15-2.79-.29-4.33-.44-1.55-.18-2.99-.47-4.33-.88-1.34-.44-2.46-1.05-3.37-1.84-.88-.82-1.31-1.93-1.31-3.33,0-1.11.25-2.11.74-3.02.53-.9,1.24-1.68,2.14-2.32.93-.64,2.06-1.14,3.37-1.49,1.31-.38,2.77-.57,4.38-.57,1.49,0,2.87.1,4.16.31,1.28.18,2.42.38,3.41.61s1.82.45,2.49.66c.67.18,1.15.26,1.44.26.29,0,.53-.06.7-.17.17-.15.34-.31.48-.48l.48.17-3.02,6.08-.53-.26v-.48c0-.26-.29-.53-.88-.79-.55-.29-1.27-.54-2.14-.74-.88-.23-1.85-.42-2.93-.57s-2.13-.22-3.15-.22c-1.9,0-3.22.22-3.98.66-.76.44-1.14.9-1.14,1.4s.26.88.79,1.14c.53.23,1.21.41,2.06.53.85.12,1.81.22,2.89.31,1.08.06,2.19.16,3.33.31,1.14.15,2.25.35,3.33.61,1.08.26,2.04.66,2.89,1.18.85.5,1.53,1.17,2.06,2.01.53.82.79,1.85.79,3.11,0,.96-.2,1.91-.61,2.84-.38.93-1.05,1.78-2.01,2.54-.93.73-2.2,1.31-3.81,1.75-1.58.44-3.54.66-5.91.66-1.84,0-3.43-.09-4.77-.26-1.31-.17-2.44-.38-3.37-.61-.93-.26-1.68-.5-2.23-.7-.53-.2-.92-.31-1.18-.31-.18,0-.34.06-.48.17-.12.12-.25.25-.39.39l-.53-.13,3.24-7.79.44.22Z"/></g><g id="g1224"><path id="path1094" d="M46.04,308.12h.65c0,.18.02.45.05.81.07.32.25.49.54.49.07,0,.27-.05.59-.16.32-.14.68-.29,1.08-.43.4-.14.77-.29,1.13-.43.36-.14.59-.23.7-.27v-1.73c0-.4-.13-.65-.38-.76-.25-.11-.49-.18-.7-.22v-.65h10.58v.65c-.4.04-.74.11-1.03.22-.25.11-.38.36-.38.76v25.15c0,.4.13.65.38.76.29.11.59.18.92.22v.65h-10.74v-.65c.36-.04.67-.11.92-.22.29-.11.43-.36.43-.76v-17.16c-.9.22-1.64.4-2.21.54-.54.14-.95.31-1.24.49-.25.14-.43.32-.54.54-.07.22-.11.5-.11.86h-.65v-8.69Z"/><path id="path1096" d="M88.01,309.96c-.5,0-1.1.07-1.78.22-.68.11-1.33.31-1.94.59-.61.29-1.13.7-1.56,1.24-.43.5-.65,1.15-.65,1.94s.22,1.46.65,2c.43.5.95.9,1.56,1.19.61.29,1.26.5,1.94.65.68.11,1.28.16,1.78.16s1.1-.05,1.78-.16c.68-.14,1.33-.36,1.94-.65.61-.29,1.13-.68,1.56-1.19.43-.54.65-1.21.65-2s-.22-1.44-.65-1.94c-.43-.54-.95-.95-1.56-1.24-.61-.29-1.26-.49-1.94-.59-.68-.14-1.28-.22-1.78-.22ZM79.48,325.01v.49c0,.47.2.88.59,1.24.4.32.92.59,1.56.81.65.22,1.39.38,2.21.49.86.11,1.73.16,2.59.16,1.15,0,2.25-.14,3.29-.43,1.08-.32,2.03-.79,2.86-1.4.86-.65,1.56-1.44,2.1-2.37.58-.94.92-2.05,1.03-3.35-1.87.94-3.58,1.64-5.13,2.1-1.55.47-3.22.7-5.02.7-1.4,0-2.73-.22-3.99-.65-1.26-.43-2.37-1.06-3.35-1.89-.97-.83-1.74-1.82-2.32-2.97-.58-1.19-.86-2.52-.86-3.99,0-1.73.4-3.18,1.19-4.37.83-1.22,1.85-2.21,3.08-2.97,1.26-.76,2.64-1.3,4.16-1.62,1.55-.36,3.04-.54,4.48-.54,2.27,0,4.32.29,6.15.86s3.4,1.46,4.69,2.64c1.33,1.15,2.36,2.61,3.08,4.37.72,1.73,1.08,3.78,1.08,6.15s-.45,4.5-1.35,6.37c-.9,1.87-2.1,3.44-3.62,4.69-1.51,1.26-3.27,2.21-5.29,2.86-1.98.61-4.07.92-6.26.92-1.4,0-2.7-.07-3.89-.22-1.15-.14-2.16-.32-3.02-.54-.86-.25-1.55-.47-2.05-.65-.5-.18-.81-.27-.92-.27-.43,0-.85.2-1.24.59l-.65-.27,4.26-7.23.54.27Z"/><path id="path1098" d="M135.05,326.79c.43,0,.74-.07.92-.22.22-.18.36-.52.43-1.03h.65v8.69h-.65c-.07-.5-.23-.81-.49-.92-.22-.11-.59-.16-1.13-.16h-23.96c-.36,0-.63.05-.81.16-.18.11-.27.41-.27.92h-.65c-.07-1.58.14-3.04.65-4.37.5-1.33,1.21-2.55,2.1-3.67s1.94-2.14,3.13-3.08c1.22-.94,2.48-1.8,3.78-2.59,1.33-.79,2.66-1.55,3.99-2.27,1.33-.72,2.59-1.44,3.78-2.16.54-.32.94-.67,1.19-1.03.25-.36.38-.85.38-1.46,0-.68-.31-1.31-.92-1.89-.58-.61-1.55-.92-2.91-.92-1.26,0-2.45.2-3.56.59-1.08.4-2.03.86-2.86,1.4-.83.54-1.47,1.1-1.94,1.67-.47.54-.7.99-.7,1.35,0,.22.07.49.22.81l-.65.49-5.72-8.04.59-.43c.11.11.23.22.38.32.18.07.38.11.59.11.29,0,.76-.23,1.4-.7.68-.5,1.58-1.04,2.7-1.62,1.15-.61,2.5-1.15,4.05-1.62,1.55-.47,3.35-.7,5.4-.7,1.55,0,3.02.23,4.43.7s2.64,1.12,3.72,1.94c1.08.79,1.94,1.76,2.59,2.91.65,1.12.97,2.36.97,3.72s-.29,2.48-.86,3.45c-.54.97-1.26,1.83-2.16,2.59-.9.72-1.92,1.37-3.08,1.94-1.12.58-2.25,1.13-3.4,1.67-1.15.5-2.25,1.03-3.29,1.56-1.04.54-1.92,1.15-2.64,1.83h14.62Z"/><path id="path1100" d="M149.93,308.12h.65c0,.18.02.45.05.81.07.32.25.49.54.49.07,0,.27-.05.59-.16.32-.14.68-.29,1.08-.43.4-.14.77-.29,1.13-.43.36-.14.59-.23.7-.27v-1.73c0-.4-.13-.65-.38-.76-.25-.11-.49-.18-.7-.22v-.65h10.58v.65c-.4.04-.74.11-1.03.22-.25.11-.38.36-.38.76v25.15c0,.4.13.65.38.76.29.11.59.18.92.22v.65h-10.74v-.65c.36-.04.67-.11.92-.22.29-.11.43-.36.43-.76v-17.16c-.9.22-1.64.4-2.21.54-.54.14-.95.31-1.24.49-.25.14-.43.32-.54.54-.07.22-.11.5-.11.86h-.65v-8.69Z"/><path id="path1102" d="M196.27,318.1h14.14v6.37h-14.14v-6.37Z"/><path id="path1104" d="M260.14,326.79c.43,0,.74-.07.92-.22.22-.18.36-.52.43-1.03h.65v8.69h-.65c-.07-.5-.23-.81-.49-.92-.22-.11-.59-.16-1.13-.16h-23.96c-.36,0-.63.05-.81.16-.18.11-.27.41-.27.92h-.65c-.07-1.58.14-3.04.65-4.37.5-1.33,1.21-2.55,2.1-3.67.9-1.12,1.94-2.14,3.13-3.08,1.22-.94,2.48-1.8,3.78-2.59,1.33-.79,2.66-1.55,3.99-2.27,1.33-.72,2.59-1.44,3.78-2.16.54-.32.94-.67,1.19-1.03.25-.36.38-.85.38-1.46,0-.68-.31-1.31-.92-1.89-.58-.61-1.55-.92-2.91-.92-1.26,0-2.45.2-3.56.59-1.08.4-2.03.86-2.86,1.4-.83.54-1.48,1.1-1.94,1.67-.47.54-.7.99-.7,1.35,0,.22.07.49.22.81l-.65.49-5.72-8.04.59-.43c.11.11.23.22.38.32.18.07.38.11.59.11.29,0,.76-.23,1.4-.7.68-.5,1.58-1.04,2.7-1.62,1.15-.61,2.5-1.15,4.05-1.62,1.55-.47,3.35-.7,5.4-.7,1.55,0,3.02.23,4.43.7s2.64,1.12,3.72,1.94c1.08.79,1.94,1.76,2.59,2.91.65,1.12.97,2.36.97,3.72s-.29,2.48-.86,3.45c-.54.97-1.26,1.83-2.16,2.59-.9.72-1.92,1.37-3.08,1.94-1.12.58-2.25,1.13-3.4,1.67-1.15.5-2.25,1.03-3.29,1.56-1.04.54-1.92,1.15-2.64,1.83h14.62Z"/><path id="path1106" d="M283.22,304.45c2.01,0,3.9.38,5.67,1.13,1.76.72,3.31,1.73,4.64,3.02,1.37,1.3,2.43,2.82,3.18,4.59.79,1.76,1.19,3.69,1.19,5.77s-.4,4.01-1.19,5.77c-.76,1.76-1.82,3.29-3.18,4.59-1.33,1.3-2.88,2.28-4.64,2.97-1.76.68-3.65,1.03-5.67,1.03s-3.87-.34-5.67-1.03c-1.76-.68-3.33-1.67-4.69-2.97-1.33-1.3-2.39-2.82-3.18-4.59-.76-1.76-1.13-3.69-1.13-5.77s.38-4.01,1.13-5.77c.79-1.76,1.85-3.29,3.18-4.59,1.37-1.3,2.93-2.3,4.69-3.02,1.8-.76,3.69-1.13,5.67-1.13ZM283.22,310.82c-1.19,0-2.21.23-3.08.7-.83.47-1.51,1.1-2.05,1.89-.54.76-.94,1.62-1.19,2.59-.25.97-.38,1.96-.38,2.97s.13,2,.38,2.97.65,1.85,1.19,2.64c.54.76,1.22,1.37,2.05,1.83.86.47,1.89.7,3.08.7s2.19-.23,3.02-.7c.86-.47,1.56-1.08,2.1-1.83.54-.79.94-1.67,1.19-2.64.25-.97.38-1.96.38-2.97s-.13-2-.38-2.97c-.25-.97-.65-1.83-1.19-2.59-.54-.79-1.24-1.42-2.1-1.89-.83-.47-1.83-.7-3.02-.7h0Z"/><path id="path1108" d="M329.4,326.79c.43,0,.74-.07.92-.22.22-.18.36-.52.43-1.03h.65v8.69h-.65c-.07-.5-.23-.81-.49-.92-.22-.11-.59-.16-1.13-.16h-23.96c-.36,0-.63.05-.81.16-.18.11-.27.41-.27.92h-.65c-.07-1.58.14-3.04.65-4.37.5-1.33,1.21-2.55,2.1-3.67s1.94-2.14,3.13-3.08c1.22-.94,2.48-1.8,3.78-2.59,1.33-.79,2.66-1.55,3.99-2.27,1.33-.72,2.59-1.44,3.78-2.16.54-.32.94-.67,1.19-1.03s.38-.85.38-1.46c0-.68-.31-1.31-.92-1.89-.58-.61-1.55-.92-2.91-.92-1.26,0-2.45.2-3.56.59-1.08.4-2.03.86-2.86,1.4-.83.54-1.48,1.1-1.94,1.67-.47.54-.7.99-.7,1.35,0,.22.07.49.22.81l-.65.49-5.72-8.04.59-.43c.11.11.23.22.38.32.18.07.38.11.59.11.29,0,.76-.23,1.4-.7.68-.5,1.58-1.04,2.7-1.62,1.15-.61,2.5-1.15,4.05-1.62,1.55-.47,3.35-.7,5.4-.7,1.55,0,3.02.23,4.43.7s2.64,1.12,3.72,1.94c1.08.79,1.94,1.76,2.59,2.91.65,1.12.97,2.36.97,3.72s-.29,2.48-.86,3.45c-.54.97-1.26,1.83-2.16,2.59-.9.72-1.92,1.37-3.08,1.94-1.12.58-2.25,1.13-3.4,1.67-1.15.5-2.25,1.03-3.29,1.56-1.04.54-1.92,1.15-2.64,1.83h14.62Z"/><path id="path1110" d="M344.28,308.12h.65c0,.18.02.45.05.81.07.32.25.49.54.49.07,0,.27-.05.59-.16.32-.14.68-.29,1.08-.43.4-.14.77-.29,1.13-.43.36-.14.59-.23.7-.27v-1.73c0-.4-.13-.65-.38-.76-.25-.11-.49-.18-.7-.22v-.65h10.58v.65c-.4.04-.74.11-1.03.22-.25.11-.38.36-.38.76v25.15c0,.4.13.65.38.76.29.11.59.18.92.22v.65h-10.74v-.65c.36-.04.67-.11.92-.22.29-.11.43-.36.43-.76v-17.16c-.9.22-1.64.4-2.21.54-.54.14-.95.31-1.24.49-.25.14-.43.32-.54.54-.07.22-.11.5-.11.86h-.65v-8.69Z"/></g><g id="g1280"><path id="path1075" d="M112.9,418.21l.38.31c-.08.11-.2.27-.35.5-.11.23-.08.41.09.54.04.03.19.1.43.18.26.07.54.15.84.25.3.1.59.19.87.28.28.08.46.14.54.17l.81-1.02c.19-.23.23-.44.13-.63-.1-.18-.2-.34-.31-.46l.31-.38,6.26,4.99-.31.38c-.25-.17-.49-.28-.71-.36-.2-.05-.39.03-.58.27l-11.86,14.89c-.19.23-.23.44-.13.63.12.2.27.39.44.56l-.31.38-6.36-5.06.31-.38c.23.15.44.25.64.3.22.07.43,0,.61-.24l8.09-10.16c-.63-.3-1.16-.54-1.56-.72-.39-.17-.71-.27-.96-.3-.22-.03-.41-.01-.57.06-.14.09-.3.25-.47.46l-.38-.31,4.1-5.14Z"/><path id="path1077" d="M142.51,435.33c1.34.73,2.46,1.66,3.36,2.8.91,1.12,1.58,2.34,1.99,3.69.44,1.36.59,2.76.46,4.2-.11,1.46-.54,2.88-1.3,4.27-.75,1.39-1.71,2.52-2.88,3.41-1.14.9-2.4,1.53-3.78,1.9-1.35.38-2.74.48-4.16.3-1.42-.18-2.8-.64-4.14-1.37-1.32-.72-2.45-1.63-3.4-2.73-.92-1.09-1.61-2.32-2.05-3.67-.42-1.34-.57-2.74-.46-4.2.14-1.45.58-2.86,1.33-4.25.75-1.39,1.7-2.53,2.84-3.43,1.16-.89,2.42-1.52,3.78-1.9,1.38-.37,2.78-.47,4.21-.31,1.47.15,2.86.58,4.18,1.3h0ZM140.2,439.56c-.79-.43-1.56-.64-2.3-.65-.72.01-1.4.18-2.05.51-.63.31-1.21.74-1.73,1.29-.52.55-.96,1.17-1.32,1.84-.36.67-.64,1.37-.82,2.11-.18.74-.24,1.47-.17,2.19.09.7.32,1.35.7,1.96.4.62,1,1.15,1.79,1.58.79.43,1.54.64,2.26.63.74,0,1.43-.15,2.06-.46.64-.33,1.23-.77,1.75-1.33.52-.55.96-1.17,1.32-1.84s.64-1.37.82-2.11.23-1.45.15-2.15c-.07-.72-.31-1.39-.72-2.02-.38-.61-.97-1.13-1.76-1.56h0Z"/><path id="path1079" d="M167.3,445.72c1.46.43,2.75,1.11,3.87,2.04,1.13.9,2.03,1.96,2.72,3.19.72,1.23,1.16,2.57,1.33,4.01.2,1.45.07,2.93-.37,4.45-.45,1.51-1.15,2.83-2.1,3.94-.93,1.12-2.02,2-3.29,2.65-1.24.66-2.58,1.04-4,1.16-1.43.12-2.87-.04-4.33-.47-1.44-.42-2.73-1.08-3.89-1.96-1.13-.87-2.06-1.93-2.77-3.16-.69-1.22-1.13-2.56-1.33-4.01-.17-1.44-.03-2.92.41-4.43.45-1.51,1.13-2.83,2.06-3.95.95-1.11,2.05-1.99,3.29-2.65,1.27-.65,2.62-1.04,4.05-1.19,1.47-.16,2.92-.03,4.36.39h0ZM165.94,450.34c-.86-.25-1.66-.3-2.38-.15-.7.16-1.33.47-1.89.93-.55.43-1.03.97-1.42,1.63-.39.65-.69,1.34-.91,2.07-.22.73-.34,1.48-.36,2.24-.02.76.07,1.48.3,2.17.23.66.6,1.25,1.1,1.77.53.52,1.22.91,2.08,1.17.86.25,1.64.3,2.34.14.73-.15,1.37-.45,1.92-.88.56-.46,1.04-1.01,1.43-1.67.39-.65.69-1.34.91-2.07.22-.73.34-1.48.36-2.24.02-.76-.08-1.47-.31-2.13-.22-.69-.6-1.3-1.12-1.82-.5-.52-1.18-.9-2.04-1.16h0Z"/><path id="path1081" d="M207.7,452.95c-.62.07-1.21.32-1.77.76-.55.44-.82,1.07-.78,1.89.14.81.53,1.37,1.17,1.68.64.32,1.27.44,1.89.37.62-.07,1.21-.32,1.77-.76.55-.44.82-1.07.78-1.89-.14-.81-.53-1.37-1.17-1.68-.64-.32-1.27-.44-1.89-.37ZM208.34,467.34c.79-.08,1.59-.36,2.42-.83.82-.5,1.44-1.09,1.86-1.76-1.09-2.29-2.72-3.32-4.89-3.09-1.03.11-1.85.46-2.48,1.05-.62.56-.89,1.29-.79,2.18.1.89.51,1.56,1.24,2,.73.41,1.61.57,2.64.46ZM222.22,461.17c-.07-.18-.18-.31-.33-.38-.12-.1-.33-.13-.63-.1-.27.03-.54.18-.81.46-.27.28-.52.6-.76.98-.24.35-.44.72-.62,1.09-.15.37-.26.68-.31.94.15.12.36.25.62.39.26.14.53.26.82.36.29.11.57.2.85.28.28.05.51.07.7.05.41-.04.63-.26.67-.65l.49-.05.6,5.56c-.65.07-1.32.11-2,.13-.68.05-1.35.02-2.02-.07-.67-.12-1.32-.31-1.95-.57-.6-.26-1.16-.61-1.67-1.05-1.2,1.09-2.44,1.86-3.73,2.33-1.27.44-2.7.74-4.3.91-1,.11-2.04.11-3.12,0-1.08-.13-2.08-.42-3.01-.87-.9-.45-1.66-1.07-2.29-1.85-.63-.78-1.01-1.77-1.14-2.96-.08-.79-.03-1.52.18-2.2.2-.71.5-1.35.9-1.94.4-.59.89-1.11,1.48-1.55.58-.47,1.21-.87,1.89-1.19-.59-.38-1.12-.82-1.58-1.35-.44-.55-.7-1.18-.78-1.89-.12-1.08.02-1.99.41-2.71.41-.76.96-1.36,1.65-1.82.71-.49,1.51-.85,2.39-1.08.9-.26,1.77-.44,2.61-.53.87-.09,1.74-.11,2.62-.04.88.04,1.69.22,2.44.52.77.3,1.41.77,1.92,1.4.53.6.85,1.43.96,2.48.06.51,0,1.01-.17,1.5-.14.45-.36.89-.64,1.3-.29.39-.62.75-.99,1.09-.37.34-.75.66-1.13.94.5.33.98.72,1.44,1.16.46.44.9.88,1.33,1.29.8-1.48,1.73-2.86,2.8-4.12,1.07-1.29,2.33-2.37,3.8-3.24l.75,6.98-.33.03Z"/><path id="path1083" d="M251.59,438.12c1.55-.79,3.12-1.31,4.7-1.56,1.59-.29,3.11-.28,4.55.02,1.46.3,2.81.9,4.03,1.8,1.22.91,2.24,2.16,3.05,3.76.81,1.6,1.22,3.16,1.23,4.69,0,1.52-.3,2.96-.92,4.32-.6,1.34-1.49,2.56-2.68,3.65-1.16,1.08-2.52,2.01-4.07,2.8-1.55.79-3.12,1.34-4.7,1.65-1.56.3-3.07.3-4.53,0-1.44-.31-2.77-.91-3.99-1.82-1.22-.91-2.24-2.16-3.05-3.76-.81-1.6-1.22-3.16-1.23-4.69,0-1.52.29-2.95.89-4.3.62-1.36,1.51-2.58,2.66-3.69,1.16-1.14,2.52-2.1,4.07-2.89h0ZM253.85,442.56c-.8.41-1.5.92-2.11,1.53-.58.6-1.03,1.27-1.36,2.02-.31.71-.47,1.49-.46,2.34.02.82.24,1.65.67,2.5.43.85.98,1.53,1.64,2.05.67.48,1.39.82,2.16,1.01.78.15,1.58.17,2.41.06.85-.13,1.68-.39,2.48-.8.8-.41,1.49-.91,2.07-1.51.61-.61,1.06-1.27,1.38-1.98.32-.74.48-1.52.46-2.34,0-.85-.22-1.7-.65-2.55-.43-.85-.98-1.52-1.66-2-.66-.52-1.38-.86-2.16-1.01-.77-.19-1.58-.22-2.43-.09-.83.11-1.64.38-2.44.78h0Z"/><path id="path1085" d="M286.25,426.63c.94-.74,1.45-1.41,1.53-2.02.08-.65-.06-1.21-.43-1.68-.37-.47-.87-.74-1.5-.8-.63-.1-1.41.22-2.36.96l-5.41,4.22,2.77,3.54,5.41-4.22ZM287.73,439.67c.12.15.26.25.43.29.17,0,.48-.13.92-.41l.3.39-6.63,5.18-.3-.39c.37-.36.57-.62.59-.77.02-.19-.02-.36-.14-.51l-11.72-15c-.12-.15-.26-.23-.44-.23-.17-.04-.48.08-.92.35l-.3-.39,11.78-9.2c2.38-1.86,4.45-2.77,6.21-2.73,1.74.02,3.33.94,4.75,2.77,1.16,1.48,1.62,2.98,1.4,4.51-.2,1.51-.83,2.96-1.87,4.37l7.97,2.38c.56.18,1.02.14,1.39-.15l.3.39-6.69,5.23-.3-.39c.46-.39.54-.77.26-1.13-.03-.04-.24-.13-.61-.25-.37-.12-.83-.27-1.37-.43-.54-.16-1.13-.32-1.77-.48-.64-.19-1.25-.37-1.86-.52-.58-.17-1.1-.32-1.54-.45-.45-.13-.75-.23-.9-.28l-3.15,2.46,4.22,5.41Z"/></g></g></g></svg>